<svg xmlns="http://www.w3.org/2000/svg" viewBox="0 0 100 100" width="1024" height="1024">
<title>Tawaq — Turning tāʾ / manuscript amber</title><desc>A custom tāʾ with two dots, a curved bowl and a softly capped left terminal and a raised page with a continuous fold seam.</desc>
<defs xmlns="http://www.w3.org/2000/svg">
 <linearGradient id="paper" x1="0" y1="0" x2="0.8" y2="1"><stop stop-color="#FFFDF7" offset="0" /><stop stop-color="#F0EADF" offset="1" /></linearGradient>
 <linearGradient id="left" x1="0.15" y1="0" x2="0.8" y2="1"><stop stop-color="#D5B16B" offset="0" /><stop stop-color="#AB7E36" offset="0.5" /><stop stop-color="#6C491D" offset="1" /></linearGradient>
 <linearGradient id="right" x1="0" y1="0" x2="0.8" y2="1"><stop stop-color="#E8C575" offset="0" /><stop stop-color="#C99B45" offset="0.48" /><stop stop-color="#976822" offset="1" /></linearGradient>
 <linearGradient id="fold" x1="0" y1="0" x2="1" y2="1"><stop stop-color="#A3742D" offset="0" /><stop stop-color="#68451B" offset="1" /></linearGradient>
<clipPath id="silhouette"><path d="M 24 43 C 22 64 33 77 50 77 C 68 77 80 63 80 42 L 78.4 27 C 78.3 25.6 77.7 25.2 76.5 25.6 C 64.2 29.6 57 38 55 51 C 54 58 53 62 48 64 C 37 67 32.5 56 34 46 C 34.4 43.5 34 42.6 32 42.2 L 26.8 41.1 C 25.2 40.8 24.2 41.5 24 43 Z"/></clipPath>
</defs>

<g id="surface"><rect x="3.5" y="3.5" width="93" height="93" rx="22" fill="url(#paper)" data-small-fill="#F7F4ED"/></g>
<g id="mark"><path d="M 24 43 C 22 64 33 77 50 77 C 68 77 80 63 80 42 L 78.4 27 C 78.3 25.6 77.7 25.2 76.5 25.6 C 64.2 29.6 57 38 55 51 C 54 58 53 62 48 64 C 37 67 32.5 56 34 46 C 34.4 43.5 34 42.6 32 42.2 L 26.8 41.1 C 25.2 40.8 24.2 41.5 24 43 Z" fill="url(#left)" data-small-fill="#80591F"/><rect x="39.5" y="29.5" width="7.5" height="7.5" rx="2.1" fill="url(#left)" data-small-fill="#80591F"/><rect x="52.5" y="29.5" width="7.5" height="7.5" rx="2.1" fill="url(#right)" data-small-fill="#80591F"/><g id="detail" clip-path="url(#silhouette)">
<path d="M 77.5 25.4 L 80 42 C 80 63 68 77 50 77 C 63 59 68 41 77.5 25.4 Z" fill="url(#right)"/>
<path d="M 77.5 25.4 C 65 29 57 38 55 51 C 54 58 53 62 48 64 C 58 58 66 40 77.5 25.4 Z" fill="url(#fold)" opacity=".55"/>
<path d="M 77.5 25.4 C 68 41 63 59 50 77 C 65 61 70 40 77.5 25.4 Z" fill="#F2DFA5" opacity=".20"/>
</g></g>
</svg>
